<svg xmlns="http://www.w3.org/2000/svg" width="480" height="480" viewBox="0 0 480 480"><circle cx="155" cy="72" r="1.2" fill="#fff" fill-opacity="0.35"/><circle cx="35" cy="257" r="0.7" fill="#fff" fill-opacity="1"/><circle cx="28" cy="244" r="0.5" fill="#fff" fill-opacity="0.35"/><circle cx="208" cy="34" r="0.5" fill="#fff" fill-opacity="1"/><circle cx="204" cy="397" r="0.5" fill="#fff" fill-opacity="0.5"/><circle cx="303" cy="280" r="0.5" fill="#fff" fill-opacity="1"/><circle cx="281" cy="24" r="0.6" fill="#fff" fill-opacity="0.35"/><circle cx="267" cy="64" r="0.8" fill="#fff" fill-opacity="0.5"/><circle cx="260" cy="274" r="1" fill="#fff" fill-opacity="0.5"/><circle cx="49" cy="274" r="0.6" fill="#fff" fill-opacity="0.7"/><circle cx="47" cy="342" r="1" fill="#fff" fill-opacity="0.35"/><circle cx="297" cy="238" r="1" fill="#fff" fill-opacity="0.9"/><circle cx="373" cy="223" r="0.8" fill="#fff" fill-opacity="0.7"/><circle cx="144" cy="381" r="1.2" fill="#fff" fill-opacity="0.5"/><circle cx="39" cy="144" r="0.8" fill="#fff" fill-opacity="0.7"/><circle cx="350" cy="138" r="0.5" fill="#fff" fill-opacity="0.35"/><circle cx="246" cy="79" r="0.7" fill="#fff" fill-opacity="0.5"/><circle cx="448" cy="202" r="1.2" fill="#fff" fill-opacity="0.35"/><circle cx="367" cy="275" r="1.5" fill="#fff" fill-opacity="0.7"/><circle cx="163" cy="168" r="0.8" fill="#fff" fill-opacity="1"/><circle cx="383" cy="33" r="0.5" fill="#fff" fill-opacity="0.7"/><circle cx="228" cy="319" r="0.5" fill="#fff" fill-opacity="0.7"/><circle cx="311" cy="477" r="1.5" fill="#fff" fill-opacity="0.9"/><circle cx="137" cy="185" r="1.2" fill="#fff" fill-opacity="0.7"/><circle cx="11" cy="222" r="0.6" fill="#fff" fill-opacity="1"/><circle cx="56" cy="28" r="1.5" fill="#fff" fill-opacity="0.7"/><circle cx="62" cy="119" r="0.8" fill="#fff" fill-opacity="0.9"/><circle cx="39" cy="216" r="1" fill="#fff" fill-opacity="0.7"/><circle cx="424" cy="393" r="1.5" fill="#fff" fill-opacity="1"/><circle cx="134" cy="199" r="0.7" fill="#fff" fill-opacity="0.9"/><circle cx="460" cy="72" r="0.6" fill="#fff" fill-opacity="0.5"/><circle cx="111" cy="112" r="0.8" fill="#fff" fill-opacity="1"/><circle cx="88" cy="135" r="0.6" fill="#fff" fill-opacity="0.9"/><circle cx="257" cy="293" r="0.7" fill="#fff" fill-opacity="0.5"/><circle cx="331" cy="247" r="1" fill="#fff" fill-opacity="0.35"/><circle cx="219" cy="418" r="1.5" fill="#fff" fill-opacity="1"/><circle cx="188" cy="192" r="0.5" fill="#fff" fill-opacity="0.9"/><circle cx="304" cy="30" r="0.5" fill="#fff" fill-opacity="0.5"/><circle cx="212" cy="53" r="1" fill="#fff" fill-opacity="0.35"/><circle cx="49" cy="272" r="1" fill="#fff" fill-opacity="0.35"/><circle cx="455" cy="295" r="0.5" fill="#fff" fill-opacity="0.5"/><circle cx="295" cy="71" r="0.7" fill="#fff" fill-opacity="0.7"/><circle cx="289" cy="228" r="0.5" fill="#fff" fill-opacity="0.9"/><circle cx="477" cy="224" r="0.8" fill="#fff" fill-opacity="0.7"/><circle cx="41" cy="49" r="0.7" fill="#fff" fill-opacity="0.7"/><circle cx="230" cy="332" r="1" fill="#fff" fill-opacity="0.35"/><circle cx="99" cy="457" r="0.7" fill="#fff" fill-opacity="0.5"/><circle cx="331" cy="439" r="1.5" fill="#fff" fill-opacity="1"/><circle cx="143" cy="309" r="0.5" fill="#fff" fill-opacity="0.7"/><circle cx="249" cy="436" r="0.7" fill="#fff" fill-opacity="0.5"/><circle cx="256" cy="374" r="0.7" fill="#fff" fill-opacity="0.5"/><circle cx="294" cy="378" r="1.5" fill="#fff" fill-opacity="0.5"/><circle cx="387" cy="393" r="1.2" fill="#fff" fill-opacity="0.5"/><circle cx="96" cy="237" r="1.2" fill="#fff" fill-opacity="0.35"/><circle cx="475" cy="379" r="0.8" fill="#fff" fill-opacity="0.7"/><circle cx="93" cy="290" r="0.7" fill="#fff" fill-opacity="0.9"/><circle cx="388" cy="347" r="0.7" fill="#fff" fill-opacity="0.7"/><circle cx="39" cy="49" r="0.8" fill="#fff" fill-opacity="0.5"/><circle cx="162" cy="232" r="1" fill="#fff" fill-opacity="0.35"/><circle cx="230" cy="313" r="1.5" fill="#fff" fill-opacity="0.35"/><circle cx="401" cy="58" r="0.8" fill="#fff" fill-opacity="0.5"/><circle cx="229" cy="86" r="1.5" fill="#fff" fill-opacity="0.7"/><circle cx="42" cy="454" r="1.2" fill="#fff" fill-opacity="0.9"/><circle cx="222" cy="357" r="0.5" fill="#fff" fill-opacity="0.5"/><circle cx="82" cy="61" r="0.6" fill="#fff" fill-opacity="1"/><circle cx="434" cy="387" r="0.6" fill="#fff" fill-opacity="1"/><circle cx="397" cy="471" r="1.2" fill="#fff" fill-opacity="0.7"/><circle cx="75" cy="263" r="0.5" fill="#fff" fill-opacity="0.35"/><circle cx="384" cy="349" r="0.5" fill="#fff" fill-opacity="1"/><circle cx="360" cy="67" r="1.5" fill="#fff" fill-opacity="0.5"/></svg>